# Blender 3.4.1
# www.blender.org
o Cube
v 1.000000 1.000000 -1.000000
v 1.000000 -1.000000 -1.000000
v 1.000000 1.000000 1.000000
v 1.000000 -1.000000 1.000000
v -1.000000 1.000000 -1.000000
v -1.000000 -1.000000 -1.000000
v -1.000000 1.000000 1.000000
v -1.000000 -1.000000 1.000000
vn -0.0000 1.0000 -0.0000
vn -0.0000 -0.0000 1.0000
vn -1.0000 -0.0000 -0.0000
vn -0.0000 -1.0000 -0.0000
vn 1.0000 -0.0000 -0.0000
vn -0.0000 -0.0000 -1.0000
vt 0.726129 0.095745
vt 0.818102 0.838512
vt 0.085407 0.525703
vt 0.818102 0.637709
vt 0.369095 0.057194
vt 0.091841 0.362725
vt 0.726129 0.296549
vt 0.584548 0.931509
vt 0.617299 0.838512
vt 0.584548 0.730706
vt 0.369095 0.257997
vt 0.617299 0.637709
vt 0.926932 0.095745
vt 0.129761 0.922417
vt 0.352391 0.527203
vt 0.168291 0.057194
vt 0.361092 0.368761
vt 0.132029 0.719346
vt 0.926932 0.296549
vt 0.383745 0.931509
vt 0.332832 0.920150
vt 0.332832 0.719346
vt 0.383745 0.730706
vt 0.168291 0.257997
s 0
f 5/13/1 3/7/1 1/1/1
f 3/8/2 8/23/2 4/10/2
f 7/21/3 6/18/3 8/22/3
f 2/5/4 8/24/4 6/16/4
f 1/2/5 4/12/5 2/4/5
f 5/15/6 2/6/6 6/17/6
f 5/13/1 7/19/1 3/7/1
f 3/8/2 7/20/2 8/23/2
f 7/21/3 5/14/3 6/18/3
f 2/5/4 4/11/4 8/24/4
f 1/2/5 3/9/5 4/12/5
f 5/15/6 1/3/6 2/6/6
